# xmcd
#
# Track frame offsets: 
#        150
#        17044
#        32244
#        50364
#        64686
#        83239
#        99110
#        122594
#        139144
#        155685
#        171133
#        187813
#        204680
#        221458
#
# Disc length: 4019 seconds
#
# Revision: 0
# Processed by: cddbd v1.5.2PL0 Copyright (c) Steve Scherf et al.
# Submitted via: ExactAudioCopy v0.95a5
#
DISCID=b90fb10e
DTITLE=Rosanne Cash - Black Cadillac
DYEAR=2006
DGENRE=Country
TTITLE0=Black Cadillac
TTITLE1=Radio Operator
TTITLE2=I Was Watching You
TTITLE3=Burn Down This Town
TTITLE4=God is in the Roses
TTITLE5=House on the Lake
TTITLE6=The World Unseen
TTITLE7=Like Fugitives
TTITLE8=Dreams Are Not My Home
TTITLE9=Like a Wave
TTITLE10=World Without Sound
TTITLE11=The Good Intent
TTITLE12=0-71
TTITLE13=Data
EXTD=
EXTT0=
EXTT1=
EXTT2=
EXTT3=
EXTT4=
EXTT5=
EXTT6=
EXTT7=
EXTT8=
EXTT9=
EXTT10=
EXTT11=
EXTT12=
EXTT13=
PLAYORDER=
